<svg xmlns="http://www.w3.org/2000/svg" viewBox="0 0 1200 720" role="img" aria-labelledby="title desc">
  <title id="title">AI Career Navigator app preview</title>
  <desc id="desc">An AI career roadmap interface with resume analysis, skill graph, and personalized learning path.</desc>
  <defs>
    <linearGradient id="bg" x1="0" x2="1" y1="0" y2="1">
      <stop offset="0" stop-color="#fff7ed"/>
      <stop offset="1" stop-color="#eff6ff"/>
    </linearGradient>
    <linearGradient id="hero" x1="0" x2="1">
      <stop offset="0" stop-color="#7c3aed"/>
      <stop offset="1" stop-color="#0ea5e9"/>
    </linearGradient>
    <filter id="shadow" x="-20%" y="-20%" width="140%" height="140%">
      <feDropShadow dx="0" dy="22" stdDeviation="24" flood-color="#0f172a" flood-opacity=".18"/>
    </filter>
  </defs>
  <rect width="1200" height="720" fill="url(#bg)"/>
  <rect x="92" y="78" width="1016" height="564" rx="34" fill="#ffffff" filter="url(#shadow)"/>
  <rect x="132" y="118" width="936" height="132" rx="28" fill="url(#hero)"/>
  <text x="174" y="174" fill="#ffffff" font-family="Poppins, Arial, sans-serif" font-size="32" font-weight="800">AI Career Navigator</text>
  <text x="174" y="211" fill="#ede9fe" font-family="Poppins, Arial, sans-serif" font-size="17">Resume insights, skill gaps, and a focused roadmap</text>
  <rect x="830" y="150" width="178" height="54" rx="27" fill="#ffffff" opacity=".22"/>
  <text x="866" y="184" fill="#ffffff" font-family="Poppins, Arial, sans-serif" font-size="16" font-weight="800">Coming soon</text>
  <rect x="132" y="292" width="292" height="278" rx="28" fill="#f8fafc"/>
  <text x="166" y="340" fill="#0f172a" font-family="Poppins, Arial, sans-serif" font-size="24" font-weight="800">Resume scan</text>
  <rect x="166" y="372" width="210" height="22" rx="11" fill="#ddd6fe"/>
  <rect x="166" y="412" width="168" height="22" rx="11" fill="#bfdbfe"/>
  <rect x="166" y="452" width="224" height="22" rx="11" fill="#fed7aa"/>
  <circle cx="280" cy="528" r="34" fill="#7c3aed"/>
  <path d="M264 529l11 11 25-32" fill="none" stroke="#fff" stroke-width="8" stroke-linecap="round" stroke-linejoin="round"/>
  <rect x="464" y="292" width="286" height="278" rx="28" fill="#f8fafc"/>
  <text x="498" y="340" fill="#0f172a" font-family="Poppins, Arial, sans-serif" font-size="24" font-weight="800">Skill graph</text>
  <circle cx="576" cy="434" r="42" fill="#0ea5e9"/>
  <circle cx="658" cy="384" r="28" fill="#f97316"/>
  <circle cx="674" cy="506" r="34" fill="#22c55e"/>
  <circle cx="534" cy="520" r="24" fill="#a855f7"/>
  <path d="M611 412l24-15M609 458l38 32M563 474l-17 28" stroke="#94a3b8" stroke-width="7" stroke-linecap="round"/>
  <rect x="790" y="292" width="278" height="278" rx="28" fill="#f8fafc"/>
  <text x="824" y="340" fill="#0f172a" font-family="Poppins, Arial, sans-serif" font-size="24" font-weight="800">Learning path</text>
  <rect x="824" y="378" width="190" height="38" rx="19" fill="#dbeafe"/>
  <text x="852" y="403" fill="#1d4ed8" font-family="Poppins, Arial, sans-serif" font-size="15" font-weight="800">React projects</text>
  <rect x="824" y="438" width="214" height="38" rx="19" fill="#ede9fe"/>
  <text x="852" y="463" fill="#6d28d9" font-family="Poppins, Arial, sans-serif" font-size="15" font-weight="800">Backend APIs</text>
  <rect x="824" y="498" width="174" height="38" rx="19" fill="#ffedd5"/>
  <text x="852" y="523" fill="#c2410c" font-family="Poppins, Arial, sans-serif" font-size="15" font-weight="800">Interview prep</text>
</svg>
