<svg xmlns="http://www.w3.org/2000/svg" viewBox="0 0 1200 720" role="img" aria-labelledby="title desc">
  <title id="title">MediCompare app preview</title>
  <desc id="desc">A healthcare comparison interface with hospital search, prices, ratings, and comparison cards.</desc>
  <defs>
    <linearGradient id="bg" x1="0" x2="1" y1="0" y2="1">
      <stop offset="0" stop-color="#f0fdfa"/>
      <stop offset="1" stop-color="#eef2ff"/>
    </linearGradient>
    <filter id="shadow" x="-20%" y="-20%" width="140%" height="140%">
      <feDropShadow dx="0" dy="20" stdDeviation="22" flood-color="#0f172a" flood-opacity=".17"/>
    </filter>
  </defs>
  <rect width="1200" height="720" fill="url(#bg)"/>
  <rect x="90" y="80" width="1020" height="560" rx="34" fill="#ffffff" filter="url(#shadow)"/>
  <rect x="90" y="80" width="1020" height="86" rx="34" fill="#0f766e"/>
  <text x="138" y="134" fill="#ffffff" font-family="Poppins, Arial, sans-serif" font-size="28" font-weight="800">MediCompare</text>
  <rect x="650" y="106" width="382" height="34" rx="17" fill="#ffffff" opacity=".22"/>
  <text x="684" y="129" fill="#e6fffb" font-family="Poppins, Arial, sans-serif" font-size="14" font-weight="700">Search hospitals, tests, and prices</text>
  <rect x="136" y="210" width="332" height="358" rx="28" fill="#f8fafc"/>
  <text x="172" y="262" fill="#0f172a" font-family="Poppins, Arial, sans-serif" font-size="28" font-weight="800">Compare care</text>
  <text x="172" y="295" fill="#64748b" font-family="Poppins, Arial, sans-serif" font-size="16">Hospital details in one view</text>
  <rect x="172" y="334" width="236" height="48" rx="24" fill="#ccfbf1"/>
  <text x="203" y="365" fill="#0f766e" font-family="Poppins, Arial, sans-serif" font-size="18" font-weight="800">Blood test pricing</text>
  <rect x="172" y="410" width="236" height="30" rx="15" fill="#e2e8f0"/>
  <rect x="172" y="462" width="192" height="30" rx="15" fill="#e2e8f0"/>
  <rect x="172" y="514" width="214" height="30" rx="15" fill="#e2e8f0"/>
  <rect x="514" y="210" width="250" height="154" rx="24" fill="#ecfeff"/>
  <text x="546" y="258" fill="#0f172a" font-family="Poppins, Arial, sans-serif" font-size="22" font-weight="800">City Hospital</text>
  <text x="546" y="291" fill="#0891b2" font-family="Poppins, Arial, sans-serif" font-size="18" font-weight="700">4.7 rating</text>
  <text x="546" y="324" fill="#64748b" font-family="Poppins, Arial, sans-serif" font-size="16">Tests from Rs 499</text>
  <rect x="802" y="210" width="250" height="154" rx="24" fill="#eef2ff"/>
  <text x="834" y="258" fill="#0f172a" font-family="Poppins, Arial, sans-serif" font-size="22" font-weight="800">Care Plus</text>
  <text x="834" y="291" fill="#4f46e5" font-family="Poppins, Arial, sans-serif" font-size="18" font-weight="700">4.5 rating</text>
  <text x="834" y="324" fill="#64748b" font-family="Poppins, Arial, sans-serif" font-size="16">Tests from Rs 599</text>
  <rect x="514" y="404" width="538" height="164" rx="26" fill="#f8fafc"/>
  <text x="550" y="454" fill="#0f172a" font-family="Poppins, Arial, sans-serif" font-size="24" font-weight="800">Result comparison</text>
  <rect x="550" y="488" width="426" height="20" rx="10" fill="#d1fae5"/>
  <rect x="550" y="526" width="344" height="20" rx="10" fill="#c7d2fe"/>
  <circle cx="990" cy="498" r="30" fill="#10b981"/>
  <path d="M977 499l9 9 20-24" fill="none" stroke="#fff" stroke-width="7" stroke-linecap="round" stroke-linejoin="round"/>
  <g fill="none" stroke="#14b8a6" stroke-width="16" stroke-linecap="round">
    <path d="M255 184v46"/>
    <path d="M232 207h46"/>
  </g>
</svg>
